<?xml version="1.0" encoding="UTF-8" standalone="no"?>
<svg xmlns="http://www.w3.org/2000/svg" width="606.61981" height="410.63022" version="1.0">
  <path fill="#afdde9" stroke="#000" stroke-linecap="round" stroke-linejoin="round" stroke-width="8.91085243" d="m323.29648 95.778707 74.0978 223.439963s22.98249-1.21118 40.52696 0c11.28562.77912 20.2326-4.2451 28.81074-12.86733 11.12088-11.17799 21.39428-24.42815 21.39428-24.42815l113.83063 1.60437.2075-205.39762L494.175 79.461941C449.95141 47.179134 389.6412 10.370972 350.96465 4.4554257"/>
  <path fill="#37abc8" stroke="#000" stroke-linecap="round" stroke-linejoin="round" stroke-width="8.91085243" d="m4.6693035 73.943439 117.4076265-.235515c30.26697-37.622138 59.62532-38.32516 94.09727-50.153673 81.31904-27.9033971 129.28662 57.616515 150.36939 73.600253 2.98095 2.259995 4.52896 3.744176 6.69884 6.414246 35.53406 43.72509 41.23137 47.83752 64.48794 74.44943 16.90658 19.31965 22.87325 21.72407 23.0966 52.74382.25007 34.72929-3.42172 85.70865-3.42172 85.70865-4.84342 16.1912-20.0891 25.45979-33.25796 25.98179-13.47301 16.45464-26.34113 19.85128-42.23366 14.51794-6.75824 15.74156-20.03258 24.66703-38.70821 23.54632-10.92839 10.71083-16.70429 11.03169-33.56407 7.64908-104.89008 7.15063-153.98824-50.53998-202.10668-109.36925L4.455424 280.20932l.2139042-206.265935z"/>
  <path fill="#afdde9" stroke="#000" stroke-linecap="round" stroke-linejoin="round" stroke-width="8.91085243" d="m114.02348 307.31002 40.52693-41.29146c17.75141-3.95291 30.77839 18.31051 22.98546 33.96556l-35.68792 45.95338c-18.5659-.80802-33.19394-20.37706-27.82447-38.62748zm39.29497 31.23954c25.41354-39.36028 47.41928-58.10068 72.90348-93.09256 19.78134-19.53476 50.23422 4.42648 37.91812 27.42179-12.3161 22.99531-73.13698 90.98145-78.7521 96.831-14.47065 7.66263-38.25709-9.74276-32.0695-31.16023z"/>
  <path fill="none" stroke="#000" stroke-linecap="round" stroke-linejoin="round" stroke-width="8.91085243" d="M342.88382 379.82386c1.84561-27.20725 2.7861-52.50979 1.2041-68.21964-8.5255-16.95214-41.93587-42.79607-68.34577-64.31256"/>
  <path fill="#afdde9" stroke="#000" stroke-linecap="round" stroke-linejoin="round" stroke-width="8.91085243" d="M201.73107 360.58932c30.33298-36.16439 56.14577-76.85345 85.89292-113.8845 18.12807-20.63493 51.18426 7.17347 38.10743 27.30564-20.58499 31.69125-77.87337 105.51509-88.31245 116.54844-14.31258 6.43685-38.07056-9.41141-35.6879-29.96958zM350.01628 4.6419405c-26.48101 6.4218085-64.39457 35.3045825-95.44493 53.5082855-24.19517 82.330134-42.55954 108.769084-19.35614 115.216444 34.79755 12.2217 71.8779-49.08808 85.89293-88.576807l48.7347 13.226479"/>
  <path fill="none" stroke="#000" stroke-linecap="round" stroke-linejoin="round" stroke-width="8.91085243" d="m382.20101 357.18018.60488-84.58089-61.09286-61.27117-1.20978-7.32589m30.84889-50.6153s.66911 1.17313 1.20978 6.65992c2.64702 4.2687 59.28216 61.04189 66.53676 73.92496.20726 36.40754.80088 72.14906 4.23417 108.55655"/>
  <path fill="#afdde9" stroke="#000" stroke-linecap="round" stroke-linejoin="round" stroke-width="8.91085243" d="M252.91934 386.03438c2.19053-4.20167 47.00163-69.01066 67.56284-91.7749 16.98938-18.80975 47.88555 10.56394 28.31456 36.36041-24.66089 32.50537-41.71525 56.46916-63.42337 74.38401-13.8987 4.34399-34.18533-3.7127-32.45403-18.96952z"/>
</svg>